<?xml version="1.0" encoding="UTF-8" standalone="no"?> <svg width="512" height="512" viewBox="0 0 512 512" fill="none" xmlns="http://www.w3.org/2000/svg">
<path d="M32 128C32 74.9807 74.9807 32 128 32H384C437.019 32 480 74.9807 480 128V384C480 437.019 437.019 480 384 480H128C74.9807 480 32 437.019 32 384V128Z" fill="#597DDC"/>
<path d="M32 112C32 67.8172 67.8172 32 112 32H368C412.183 32 448 67.8172 448 112V368C448 412.183 412.183 448 368 448H112C67.8172 448 32 412.183 32 368V112Z" fill="#6EBAFF"/>
<path fill-rule="evenodd" clip-rule="evenodd" d="M140 144C140 124.118 156.118 108 176 108H352C363.046 108 372 116.954 372 128C372 139.046 363.046 148 352 148H180V236H336C355.882 236 372 252.118 372 272V368C372 387.882 355.882 404 336 404H176C156.118 404 140 387.882 140 368V144ZM180 276V364H332V276H180Z" fill="white"/>
</svg>
